<svg width="210" height="96" viewBox="0 0 210 96" fill="none" xmlns="http://www.w3.org/2000/svg" role="img" aria-label="Bomly Guard">
  <title>Bomly Guard</title>
  <style>
    .wm { fill: #0D0D0D; font-family: "JetBrains Mono", "Geist Mono", ui-monospace, "SFMono-Regular", Menlo, monospace; font-weight: 700; }
    .sub { fill: #4A423A; font-family: "JetBrains Mono", "Geist Mono", ui-monospace, "SFMono-Regular", Menlo, monospace; font-weight: 600; }
    @media (prefers-color-scheme: dark) {
      .wm { fill: #F2EFE9; }
      .sub { fill: #D6CFC5; }
    }
  </style>

  <g transform="translate(8 14)">
    <rect x="0" y="0" width="68" height="68" rx="15" fill="#E89B5C"/>
    <svg x="14" y="10" width="40" height="48" viewBox="0 0 512 512" aria-hidden="true">
      <path d="M0 0 C30.76389046 18.65233728 63.3496519 31.71409086 98.38110352 39.73925781 C120.35727615 44.78881331 137.42588731 52.90694331 150.00610352 72.61425781 C158.43828409 87.47597607 158.45872704 102.69630703 158.40454102 119.28222656 C158.40656801 121.48822627 158.40948461 123.69422533 158.41323853 125.90022278 C158.41764449 130.51549686 158.4112947 135.130596 158.3972168 139.74584961 C158.38025504 145.58321814 158.39017346 151.42017264 158.40753841 157.2575264 C158.50481401 195.7214773 156.24367116 231.82077886 144.00610352 268.61425781 C143.78905762 269.27731934 143.57201172 269.94038086 143.34838867 270.62353516 C133.01979102 301.65696192 115.61007321 330.20373012 94.00610352 354.61425781 C93.23524414 355.49597656 92.46438477 356.37769531 91.67016602 357.28613281 C83.13098065 366.93391417 74.14083429 375.65418587 64.00610352 383.61425781 C63.0199707 384.40574219 62.03383789 385.19722656 61.01782227 386.01269531 C40.28728875 402.38026474 17.28698296 414.71101609 -7.30639648 424.23925781 C-7.95384827 424.49142059 -8.60130005 424.74358337 -9.26837158 425.00338745 C-21.4350382 429.70836117 -32.68723737 433.19215564 -45.80639648 433.05175781 C-46.85899658 433.04055908 -47.91159668 433.02936035 -48.99609375 433.01782227 C-84.20833743 432.18181894 -120.41574208 407.22662479 -146.99389648 385.61425781 C-147.78812012 384.97447998 -147.78812012 384.97447998 -148.59838867 384.32177734 C-163.37924781 372.3305079 -177.47370716 358.79055513 -188.99389648 343.61425781 C-189.7737793 342.63972656 -190.55366211 341.66519531 -191.35717773 340.66113281 C-223.57683865 300.21611567 -242.89183918 250.78045167 -248.99389648 199.61425781 C-249.07937241 198.93160858 -249.16484833 198.24895935 -249.25291443 197.54562378 C-250.32679104 187.70951029 -250.1974645 177.82420888 -250.23217773 167.94238281 C-250.23625326 166.95619713 -250.24032879 165.97001144 -250.24452782 164.95394135 C-250.2652799 159.73654906 -250.27962974 154.51918225 -250.2890625 149.30175781 C-250.3001224 143.95505938 -250.33454932 138.60877752 -250.3742342 133.2622261 C-250.40054469 129.11142272 -250.40876691 124.96071675 -250.41234398 120.80983734 C-250.41717025 118.84053474 -250.42866881 116.87123529 -250.44738197 114.90201569 C-250.63923862 93.38121666 -246.60930602 74.61404666 -230.99389648 58.61425781 C-219.07151523 48.02771759 -205.98615677 43.2078028 -190.6857605 39.83056641 C-167.08819052 34.58605665 -144.79273229 27.14014558 -122.99389648 16.61425781 C-122.29651367 16.28071289 -121.59913086 15.94716797 -120.88061523 15.60351562 C-107.91304659 9.37387581 -95.21661685 2.51887787 -83.00537109 -5.08911133 C-54.87895833 -22.55755379 -26.72773246 -16.24264029 0 0 Z M-65.49389648 23.11425781 C-66.27450439 23.55858154 -67.0551123 24.00290527 -67.859375 24.46069336 C-71.60197116 26.60142362 -75.30895532 28.79528073 -78.98999023 31.04003906 C-108.72106025 49.11237507 -141.70728356 62.52792062 -175.59545898 70.42285156 C-176.24586655 70.57523788 -176.89627411 70.72762421 -177.56639099 70.8846283 C-180.75593358 71.62864977 -183.94809535 72.35091688 -187.14941406 73.04272461 C-197.51901641 75.38846055 -205.22306003 79.26241387 -211.99389648 87.61425781 C-216.10259605 94.26288074 -217.14361361 99.89804706 -217.1550293 107.67382812 C-217.1599942 108.48442184 -217.16495911 109.29501556 -217.17007446 110.13017273 C-217.18469366 112.81758482 -217.19150557 115.50493744 -217.19702148 118.19238281 C-217.19984886 119.11859184 -217.20267624 120.04480087 -217.20558929 120.99907684 C-217.22059808 125.92207626 -217.22981075 130.84504637 -217.23413086 135.76806641 C-217.23848146 139.7964806 -217.25223612 143.82467651 -217.27514648 147.85302734 C-217.6092149 179.36571052 -217.6092149 179.36571052 -213.99389648 210.61425781 C-213.81460098 211.59230881 -213.63530548 212.5703598 -213.45057678 213.57804871 C-202.77826181 270.68134811 -170.67406208 326.2799658 -123.99389648 361.61425781 C-123.45506836 362.02949707 -122.91624023 362.44473633 -122.36108398 362.87255859 C-108.10716842 373.83065568 -93.11804045 382.79813829 -76.93139648 390.61425781 C-75.78960937 391.16645996 -74.64782227 391.71866211 -73.47143555 392.28759766 C-57.23915334 399.98422603 -44.47099735 402.58221787 -27.15551758 396.53930664 C-21.37167452 394.3749381 -15.66944317 392.04748219 -9.99389648 389.61425781 C-9.01888184 389.19789063 -8.04386719 388.78152344 -7.03930664 388.35253906 C11.07128904 380.47753598 27.78480661 370.19526846 43.00610352 357.61425781 C43.8779126 356.89471924 43.8779126 356.89471924 44.76733398 356.16064453 C55.98333889 346.8434239 65.95321528 337.08737674 75.00610352 325.61425781 C75.79887695 324.6384375 76.59165039 323.66261719 77.40844727 322.65722656 C84.45491425 313.80739836 90.341371 304.39660441 96.00610352 294.61425781 C96.38009277 293.97230469 96.75408203 293.33035156 97.1394043 292.66894531 C108.62756279 272.73563847 116.16611822 250.52951287 120.75610352 228.05175781 C120.95486084 227.08407471 121.15361816 226.1163916 121.35839844 225.11938477 C124.59869865 208.35676872 125.32985616 191.79735092 125.34204102 174.77050781 C125.34848729 172.62300533 125.35521693 170.47550369 125.36221313 168.32800293 C125.37408585 163.86383017 125.3779036 159.39973427 125.37670898 154.93554688 C125.37650454 149.23542595 125.40398067 143.53579652 125.4382534 137.83579254 C125.46053713 133.41583001 125.46454632 128.99598646 125.46348953 124.57597351 C125.46583653 122.47415956 125.47460878 120.37234188 125.49015427 118.27058411 C125.5098766 115.33335914 125.50395526 112.39720525 125.49194336 109.45996094 C125.50318237 108.60782013 125.51442139 107.75567932 125.52600098 106.87771606 C125.41888987 96.50594064 121.28082983 88.77245533 114.00610352 81.61425781 C112.89235352 80.50050781 112.89235352 80.50050781 111.75610352 79.36425781 C104.15573528 74.52765984 95.08522935 72.8482509 86.38110352 71.05175781 C47.04317102 62.36984832 9.71132833 45.73020788 -24.43896484 24.53417969 C-30.25812062 20.93950576 -35.9186859 17.49209859 -42.86889648 16.80175781 C-43.62944336 16.7128125 -44.38999023 16.62386719 -45.17358398 16.53222656 C-52.85064391 16.75552055 -58.95308224 19.27254766 -65.49389648 23.11425781 Z " fill="#000000" transform="translate(301.993896484375,47.3857421875)"/>
      <path d="M0 0 C4.8846525 2.26787438 7.73212562 5.1153475 10 10 C10.81441278 16.04992351 11.06027116 20.99202748 7.48083496 26.14348602 C4.02588661 30.47493421 -0.0160414 34.29230275 -3.9375 38.19628906 C-4.95663161 39.21813365 -5.97533789 40.24040259 -6.99365234 41.26306152 C-9.74926884 44.02776541 -12.51113748 46.78614209 -15.2744751 49.54312611 C-18.16905745 52.4326323 -21.05874267 55.32702936 -23.94921875 58.22064209 C-28.80109628 63.07615338 -33.65716494 67.92744306 -38.515625 72.77636719 C-44.1316336 78.38148012 -49.74038449 83.99377816 -55.34544373 89.60983872 C-60.16224858 94.43571861 -64.98293881 99.25769127 -69.80690002 104.07641768 C-72.68633165 106.95273238 -75.56439746 109.83037874 -78.43896484 112.71155548 C-81.13980516 115.41817217 -83.8454894 118.1198512 -86.55499268 120.8177948 C-87.54839354 121.80855118 -88.54009642 122.80101344 -89.52996826 123.79529572 C-90.88123715 125.15202923 -92.23928074 126.50200528 -93.59765625 127.85162354 C-94.35570557 128.6089188 -95.11375488 129.36621407 -95.89477539 130.14645767 C-99.77844632 133.5658308 -102.73528209 134.30960919 -107.875 134.375 C-108.88304687 134.40335938 -109.89109375 134.43171875 -110.9296875 134.4609375 C-117.33639095 133.49911688 -121.76293366 128.52902548 -126.15722656 124.1015625 C-126.74010437 123.52218933 -127.32298218 122.94281616 -127.92352295 122.34588623 C-129.83425972 120.44389814 -131.73765081 118.53475231 -133.640625 116.625 C-134.97218106 115.29479219 -136.30403381 113.96488131 -137.63616943 112.63525391 C-140.41988898 109.85447601 -143.1999762 107.0701302 -145.97753906 104.28320312 C-149.53732796 100.71199811 -153.10605026 97.1498767 -156.67752457 93.59036255 C-159.42632957 90.84878305 -162.17035517 88.1024598 -164.91295624 85.35467529 C-166.22720305 84.03909506 -167.54293514 82.72499686 -168.86017609 81.41241455 C-170.69845132 79.57921821 -172.53019388 77.73973321 -174.36035156 75.8984375 C-174.90477905 75.35805847 -175.44920654 74.81767944 -176.01013184 74.26092529 C-180.61641345 69.60257639 -182.29176309 66.66742119 -182.375 60.125 C-182.27363418 54.91733093 -181.69948398 51.89419367 -178 48 C-173.35351746 43.58584159 -169.11206934 43.53241739 -163 43.46875 C-157.23834348 44.48904334 -153.20562341 48.5446273 -149.18798828 52.58496094 C-148.28750763 53.48559265 -147.38702698 54.38622437 -146.45925903 55.31414795 C-145.49616787 56.28744914 -144.53318825 57.2608607 -143.5703125 58.234375 C-142.570416 59.23800692 -141.5700731 60.24119429 -140.56930542 61.24395752 C-137.9509809 63.86987681 -135.33872155 66.5017485 -132.72772217 69.13494873 C-130.05652628 71.82669306 -127.3795792 74.51270462 -124.703125 77.19921875 C-119.46313664 82.4605836 -114.22954889 87.7282565 -109 93 C-105.7802072 91.58321861 -103.63962034 89.88363184 -101.16711426 87.39416504 C-100.41853653 86.64544632 -99.6699588 85.8967276 -98.8986969 85.12532043 C-98.08714645 84.30343735 -97.27559601 83.48155426 -96.43945312 82.63476562 C-95.57722641 81.76961838 -94.71499969 80.90447113 -93.8266449 80.0131073 C-91.95447142 78.13332061 -90.08421138 76.25183406 -88.21690369 74.36723328 C-85.26374134 71.38700205 -82.30294413 68.41443562 -79.34094238 65.44299316 C-73.05469507 59.13455522 -66.77692289 52.81771379 -60.5 46.5 C-53.72341937 39.67938143 -46.94541645 32.86021474 -40.15760565 26.05076933 C-37.21379597 23.09699752 -34.27493163 20.13841788 -31.33975983 17.17606354 C-29.08397398 14.90185173 -26.82173069 12.63407727 -24.56054688 10.36523438 C-23.74899643 9.54335129 -22.93744598 8.7214682 -22.1013031 7.87467957 C-21.35272537 7.12596085 -20.60414764 6.37724213 -19.83288574 5.60583496 C-19.18545158 4.95395958 -18.53801743 4.3020842 -17.87096405 3.63045502 C-12.56290478 -0.99526287 -6.74348732 -0.72316218 0 0 Z " fill="#000000" transform="translate(342,189)"/>
    </svg>
  </g>

  <text class="wm" x="92" y="47" font-size="34">Bomly</text>
  <text class="sub" x="92" y="75" font-size="20">Guard</text>
</svg>
